<svg id="Group_249" data-name="Group 249" xmlns="http://www.w3.org/2000/svg" xmlns:xlink="http://www.w3.org/1999/xlink" width="600" height="60" viewBox="0 0 212.039 19.902">
  <defs>
    <clipPath id="clip-path">
      <rect id="mrs_w" data-name="mrs_w" width="212.039" height="19.902"/>
    </clipPath>
  </defs>
  <g id="Group_10" data-name="Group 10" clip-path="url(#clip-path)" fill="#ffffff">
    <path id="Path_11" data-name="Path 11" d="M0,4.354A2.033,2.033,0,0,1,2.049,2.305H2.5A2.1,2.1,0,0,1,4.363,3.369l4.949,8.062,4.975-8.088a2.006,2.006,0,0,1,1.836-1.038h.452a2.033,2.033,0,0,1,2.049,2.049V19.147a2.035,2.035,0,1,1-4.071,0V9.861L10.962,15.4a2,2,0,0,1-1.7,1.038,2,2,0,0,1-1.7-1.038L4.018,9.941V19.2A2,2,0,0,1,2,21.2a1.976,1.976,0,0,1-2-2Z" transform="translate(0 -1.453)"/>
    <path id="Path_12" data-name="Path 12" d="M61.344,15.991a2.022,2.022,0,1,1,4.044,0v.638c.585-1.384,1.543-2.661,2.74-2.661A1.843,1.843,0,0,1,70.1,15.938a1.86,1.86,0,0,1-1.516,1.889c-2.049.479-3.193,2.049-3.193,4.922v3.778a2.022,2.022,0,1,1-4.044,0Z" transform="translate(-38.677 -8.807)"/>
    <path id="Path_13" data-name="Path 13" d="M89.115,26.942a1.612,1.612,0,0,1-.772-1.383,1.568,1.568,0,0,1,1.6-1.6,1.551,1.551,0,0,1,.8.212A7.511,7.511,0,0,0,94.6,25.452c1.171,0,1.7-.426,1.7-1.065v-.053c0-.878-1.383-1.171-2.953-1.649-2-.585-4.257-1.516-4.257-4.284v-.053c0-2.9,2.342-4.523,5.215-4.523a10.027,10.027,0,0,1,4.417,1.091,1.648,1.648,0,0,1,.958,1.517,1.59,1.59,0,0,1-1.623,1.6,1.473,1.473,0,0,1-.745-.186,7.607,7.607,0,0,0-3.086-.9c-.985,0-1.49.426-1.49.984v.053c0,.8,1.357,1.171,2.9,1.7,2,.665,4.31,1.623,4.31,4.231v.053c0,3.166-2.368,4.6-5.455,4.6a9.939,9.939,0,0,1-5.374-1.623" transform="translate(-55.7 -8.717)"/>
    <path id="Path_14" data-name="Path 14" d="M146.894,4.836a2.661,2.661,0,0,1-.16-.772,2.034,2.034,0,0,1,2.1-2,2.067,2.067,0,0,1,2,1.464l3.7,11.414,3.725-11.307a2.157,2.157,0,0,1,2.075-1.623h.32a2.127,2.127,0,0,1,2.075,1.623l3.725,11.307,3.7-11.414a2.05,2.05,0,0,1,1.969-1.464,1.976,1.976,0,0,1,2.022,1.969,2.835,2.835,0,0,1-.159.8L168.764,19.47a2.27,2.27,0,0,1-2.128,1.676h-.426a2.208,2.208,0,0,1-2.1-1.676L160.436,8.8,156.765,19.47a2.209,2.209,0,0,1-2.1,1.676h-.426a2.271,2.271,0,0,1-2.129-1.676Z" transform="translate(-92.516 -1.271)"/>
    <path id="Path_15" data-name="Path 15" d="M223.126,21.157V21.1a7.723,7.723,0,0,1,15.432-.053V21.1a7.723,7.723,0,0,1-15.432.053m11.441,0V21.1a3.789,3.789,0,0,0-3.752-3.938,3.653,3.653,0,0,0-3.7,3.885V21.1a3.789,3.789,0,0,0,3.752,3.938,3.654,3.654,0,0,0,3.7-3.885" transform="translate(-140.681 -8.626)"/>
    <path id="Path_16" data-name="Path 16" d="M272.8,15.991a2.022,2.022,0,1,1,4.044,0v.638c.585-1.384,1.543-2.661,2.74-2.661a1.843,1.843,0,0,1,1.969,1.969,1.86,1.86,0,0,1-1.516,1.889c-2.049.479-3.193,2.049-3.193,4.922v3.778a2.022,2.022,0,1,1-4.044,0Z" transform="translate(-172.004 -8.807)"/>
    <path id="Path_17" data-name="Path 17" d="M315.432,17.72a2.022,2.022,0,1,1-4.045,0v-.186a5.237,5.237,0,0,1-4.443,2.315c-3.326,0-6.492-2.608-6.492-7.37v-.053c0-4.762,3.113-7.37,6.492-7.37a5.475,5.475,0,0,1,4.443,2.129V2.022a2.022,2.022,0,1,1,4.045,0ZM304.5,12.425v.053a3.637,3.637,0,0,0,3.486,3.938c1.889,0,3.459-1.57,3.459-3.938v-.053c0-2.368-1.57-3.938-3.459-3.938a3.621,3.621,0,0,0-3.486,3.938" transform="translate(-189.436 0)"/>
    <path id="Path_18" data-name="Path 18" d="M348.456,26.942a1.612,1.612,0,0,1-.772-1.383,1.6,1.6,0,0,1,2.395-1.384,7.511,7.511,0,0,0,3.858,1.277c1.171,0,1.7-.426,1.7-1.065v-.053c0-.878-1.383-1.171-2.953-1.649-2-.585-4.257-1.516-4.257-4.284v-.053c0-2.9,2.342-4.523,5.215-4.523a10.027,10.027,0,0,1,4.417,1.091,1.648,1.648,0,0,1,.958,1.517,1.59,1.59,0,0,1-1.623,1.6,1.473,1.473,0,0,1-.745-.186,7.607,7.607,0,0,0-3.086-.9c-.985,0-1.49.426-1.49.984v.053c0,.8,1.357,1.171,2.9,1.7,2,.665,4.31,1.623,4.31,4.231v.053c0,3.166-2.368,4.6-5.455,4.6a9.939,9.939,0,0,1-5.374-1.623" transform="translate(-219.215 -8.717)"/>
    <path id="Path_19" data-name="Path 19" d="M386.923,15.81a2.022,2.022,0,1,1,4.044,0v.16a5.094,5.094,0,0,1,4.2-2.288,4.267,4.267,0,0,1,4.017,2.262,5.873,5.873,0,0,1,4.683-2.262c3.007,0,4.816,1.809,4.816,5.241v7.423a2.022,2.022,0,1,1-4.044,0V20.253c0-1.916-.851-2.9-2.368-2.9s-2.448.984-2.448,2.9v6.093a2.022,2.022,0,1,1-4.044,0V20.253c0-1.916-.851-2.9-2.368-2.9s-2.448.984-2.448,2.9v6.093a2.022,2.022,0,1,1-4.044,0Z" transform="translate(-243.955 -8.626)"/>
    <path id="Path_20" data-name="Path 20" d="M455.179,1.961a2.3,2.3,0,0,1,4.523,0v.053a2.293,2.293,0,0,1-4.523,0Zm.239,5.268a2.022,2.022,0,1,1,4.044,0V17.765a2.022,2.022,0,1,1-4.044,0Z" transform="translate(-286.99 -0.045)"/>
    <path id="Path_21" data-name="Path 21" d="M475.687,18.126V11.368h-.133a1.729,1.729,0,1,1,0-3.459h.133V6.127a2.022,2.022,0,0,1,4.044,0V7.91h1.783a1.729,1.729,0,0,1,0,3.459h-1.783v6.093c0,.931.4,1.383,1.3,1.383.133,0,.4-.027.479-.027a1.686,1.686,0,0,1,1.676,1.676,1.645,1.645,0,0,1-1.038,1.517,5.97,5.97,0,0,1-2.315.4c-2.474,0-4.151-.984-4.151-4.284" transform="translate(-298.747 -2.588)"/>
    <path id="Path_22" data-name="Path 22" d="M506.946,2.022a2.022,2.022,0,1,1,4.044,0V7.343a5.045,5.045,0,0,1,4.177-2.288c3.059,0,4.842,2.022,4.842,5.295v7.37a2.022,2.022,0,1,1-4.044,0V11.627c0-1.915-.9-2.9-2.448-2.9s-2.527.984-2.527,2.9V17.72a2.022,2.022,0,1,1-4.044,0Z" transform="translate(-319.629 0)"/>
    <path id="Path_23" data-name="Path 23" d="M554.05,37.206v-.02a3.658,3.658,0,0,1,7.317-.02v.02a3.658,3.658,0,0,1-7.317.02m6.893-.02v-.02a3.234,3.234,0,1,0-6.468.02v.02a3.234,3.234,0,1,0,6.468-.02m-4.74-1.627a.427.427,0,0,1,.424-.425h1.3a1.642,1.642,0,0,1,1.2.425,1.167,1.167,0,0,1,.323.849v.02a1.2,1.2,0,0,1-.788,1.182l.637.768a.441.441,0,0,1,.111.293.413.413,0,0,1-.394.414.4.4,0,0,1-.364-.192l-.9-1.121h-.7v.889a.436.436,0,0,1-.435.425.427.427,0,0,1-.424-.425Zm1.718,1.475c.435,0,.667-.232.667-.556v-.02c0-.374-.263-.566-.687-.566h-.839v1.142Z" transform="translate(-349.329 -21.139)"/>
  </g>
</svg>
