<?xml version="1.0" encoding="utf-8"?>
<!-- Generator: Adobe Illustrator 19.0.0, SVG Export Plug-In . SVG Version: 6.00 Build 0)  -->
<svg version="1.1" id="logo-store-farmacia-paris" xmlns="http://www.w3.org/2000/svg" xmlns:xlink="http://www.w3.org/1999/xlink"
	 x="0px" y="0px" viewBox="0 0 363.2 200" style="enable-background:new 0 0 363.2 200;" xml:space="preserve">
<style type="text/css">
	.st0{fill:#ffffff;}
	.st1{fill:none;stroke:#ffffff;stroke-miterlimit:10;}
</style>
<g id="farmacia-paris">
	<g id="XMLID_2_">
		<rect id="XMLID_442_" x="182.2" y="88.2" class="st0" width="6.5" height="17.7"/>
		<rect id="XMLID_430_" x="194.5" y="88.2" class="st0" width="6.5" height="17.7"/>
		<polygon id="XMLID_431_" class="st0" points="138.4,167.2 147,167.2 147,87.5 138.1,87.5 		"/>
		<polygon id="XMLID_432_" class="st0" points="151.7,147.3 161.2,147.3 161.2,159.6 166.9,159.6 166.9,132 165.6,131 154.7,131 
			153,129.9 151.6,127.4 151.6,89.1 153,87.1 156.5,86.3 171.8,86.3 174,87.1 175.9,89.8 175.9,105.6 167.1,105.6 167.3,96.9 
			162.2,96.8 161.6,97.4 161.3,98.5 161.3,120.8 173.3,121.1 174.6,122.2 175.5,123.4 175.5,163.6 174.5,165.5 171.6,166.9 
			154.2,166.9 152.7,165.8 151.6,163.9 		"/>
		<path id="XMLID_437_" class="st0" d="M94.3,87.4H84l-12.7,80l9.6,0l1.4-14.7l11.8,0l2.4,14.8l8.4,0L94.3,87.4z M83.9,143.9
			l4.8-32.7l4.3,32.7H83.9z"/>
		<path id="XMLID_439_" class="st0" d="M71.1,87.1l-21.6-0.3l0.1,79.8v0.5h7.8v-27.3l13.3,0.3l2.7-3.3l0.3-45.7L71.1,87.1z
			 M64.7,130.7l-6.4,0l-0.3-1.1c0.1,0.1-0.1-31.7-0.1-31.7h6.8V130.7z"/>
		<path id="XMLID_441_" class="st0" d="M133.5,160.6l-0.9-0.8l-0.2-1v-19.3l-1.2-1.5l-0.9-0.6l-1.7-0.2l2.3-1l1-0.9l0.7-0.8V92.4
			l-2-2.7l-1.9-1.5h-20.4l0.2,79h8.3v-27.1h6.8v25.7l1.1,1.6h10.6v-6.2L133.5,160.6z M123.6,131.6h-6.4l-0.4-0.1
			c0,0-0.2-0.1-0.2-0.5c0-4.5,0-31.7,0-31.7h6.9V131.6z"/>
		<rect id="XMLID_428_" x="23.7" y="88.2" class="st0" width="6.5" height="17.7"/>
		<rect id="XMLID_429_" x="36" y="88.2" class="st0" width="6.5" height="17.7"/>
	</g>
	<g id="XMLID_11_">
		<path id="XMLID_443_" class="st0" d="M56.4,57.8c-1.4,3.9-3.2,7.5-3.2,11.6c0,4.2,2.4,7.1,5.9,3.3c2.5-2.7,2.7-5.8,3.5-10.2
			c0.7-3.5,1.9-8.8,1.1-11.8c-2.2,1.8-6.8,7-4.8,1c1.2-3.5,2.2-5.5,5.4-7.1c2.6-1.3,1.6-1.3,2.7-3.9c0.6-1.6,1.5-3,2.5-4.4
			c2.1-2.8,4.6-5,7.3-7.3c-1.1,2.2-6.3,9.9-5.4,12.5c1.3,3.8,10.1-3.2,11.9-4.6c1.3,2.6-3.7,6.3-5.9,8c-1.8,1.5-2.7,1.9-4.4,2.4
			c-1.8,0.4-1.9-0.2-2.3,2.3c-1,7-1.7,14.5-4.9,21c-1.6,3.3-2.9,6-6.3,7.6c-2.9,1.3-7.3,1.3-9.3-1.8C45.8,69.7,52.7,62.9,56.4,57.8z
			"/>
		<path id="XMLID_444_" class="st0" d="M64.4,38.8c-5.5,0-3.5-4-1.2-6.9c3.3-4.2,8-3.5,12.6-3.8c10-0.6,19.7-2.8,20.7-14.9
			c-10.2,10.2-20.9,4.7-31.8,11.4c-3.7,2.3-9,8.4-7.1,13.3C59.1,41.6,63.3,42.8,64.4,38.8z"/>
		<path id="XMLID_445_" class="st0" d="M179.6,53.4c-0.1-0.4-0.2-0.7-0.4-1.1c-0.8,2.5-1.2,5.1-2.2,7.5c-0.2,0.6-3.3,5.8-3.5,3.4
			c-0.1-1.6,3.3-3.2,3.1-5.1c-0.2-1.4-2.9-1.7-4.1-1.2c-1.6,0.8-1.3,3.1-2.5,4.4c-1.5,1.6-3.8,1.7-3.8-1c0-2.3,2.2-4.8,3.7-6.2
			c1.6-1.5,4.7-3,4.7,0.5c0.9-1.1,2.3-3,1.3-4.4c-1.1-1.7-3.8-1.1-5.3-0.4c-3.8,1.7-7.1,5.6-8.4,9.6c-0.5,1.6-0.7,2.6-2.4,3.2
			c-1.2,0.4-2.4,0.6-2.5-0.9c-0.1-1.3,1.6-3.9,2.1-5c1.2-2.6,2.5-5.2,3.8-7.9c-1.7-0.1-3-0.7-4.2,0.8c-0.9,1.1-1.2,2.7-1.7,3.9
			c-1.4,3.2-3.1,6-6.2,7.8c-3.4,2-4.8-0.7-4-4c0.6-2.3,2.7-6.2,5.4-6.4c0.2,0.8-1.3,1.8-0.9,2.5c0.5,0.8,3-1.7,3.3-2
			c0.6-0.6,2.2-2.1,1.5-3c-0.3-0.4-3.5-0.5-4-0.5c-4-0.1-7.1,4.4-8.3,7.7c-0.8,2.2-0.9,4.1-2.4,6c-1,1.1-2.6,2.3-1.8,0.1
			c0.7-1.9,4.8-5.1,0.8-5.7c-4.1-0.7-2.7,2.6-5,4.7c-1,0.9-2.4,1.6-3.3,0.2c-0.9-1.5,0.3-3.6,1.1-4.9c1-1.6,7-7.6,7-2.2
			c1.5-1.8,2.7-4.9-0.6-5.5c-2.9-0.5-6,2.1-7.9,4c-1.2,1.2-2.2,2.6-3,4.1c-0.7,1.4-0.8,2.8-1.3,4.2c-0.2,0.6-0.1,1.4-1.2,1
			c-0.5-0.2-0.7-0.7-0.8-1.2c-0.3-1.1,0.6-2.7,1.1-3.7c0.7-1.6,6.6-9.6,1.1-9c-2.1,0.2-3.6,2.9-4.7,4.5c-1.9,2.8-4.1,5.4-6.2,8
			c1.7-2.9,4.6-6.1,5.4-9.4c0.7-2.7-2-4-4.3-2.7c-1.9,1.1-3,4-4.1,5.9c-0.7,1.2-2.4,5.1-4.1,5.1c0.4,0,4.4-8.9,4.4-9.3
			c-0.2-2.4-3.1-2.8-4.9-2c-2.5,1.2-4.3,4.9-5.7,7.2c-0.8,1.3-1.7,2.7-2.5,4c-0.3,0.5-1.2,2.4-1.9,2.6c-2.6,0.6,1.1-5.8,1.5-6.6
			c1.2-2,3-2.6,1.5-4.9c-1.6-2.5-2.9-1.3-5.3-2.2c2.6-1.9-1.2-5-3.2-2.5c-1.1,1.3-0.7,2.6,0.1,3.8c1.1,1.5,1.3,1.5,0.5,3.5
			c-0.7,1.9-1.6,3.7-2.7,5.4c-0.5,0.8-1.8,3.3-2.9,3.5c-1.7,0.3-0.4-1.2,0.1-1.8c0.6-0.9,1.9-2.2,2-3.3c0.3-2-3.1-2.7-4.5-1.5
			c-1.6,1.4-0.8,5.3-3.9,5.4c-7,0.2,6.6-16.2,6.6-8c1.3-1.5,2.7-4.2,0.2-5.3c-2.7-1.2-6.2,1.4-8,3.1c-2.8,2.7-9,13-1.6,14.1
			c1.3,0.2,2.2-0.1,3.4-0.6c0.8-0.4,1.5-1,2.3-0.5c0.6,0.4,0.6,1.6,1.8,1.8c1.3,0.3,2.3-0.7,3-1.6c1.7-2.3,3.5-5.1,4.8-7.7
			c0.5-0.9,0.7-2,1.2-2.9c0.7-1.5,0.9-1.4,2.6-1.2c-1.2,2.6-6.4,9.7-2.4,12c3.6,2,5.8-2.3,7.4-4.6c1.3-1.8,2.5-3.7,3.7-5.5
			c0.5-0.7,1.3-2.5,2.1-3c2.4-1.4-0.6,3.4-1,4c-1,1.7-6.2,9.5-1.3,9.9c3.5,0.3,6.1-5.3,7.5-7.7c0.7-1.2,2.5-5.8,4.2-5.7
			c1,3.8-8,9.8-4.7,13.1c3.4,3.4,8-7.1,9.3-9c0.4-0.6,1.7-3.1,2.3-2.3c0.5,0.6-1.7,4-2,4.7c-0.8,1.8-2.7,4.7-1.4,6.6
			c1.3,2,4.5,1.2,5.7-0.4c0.9,2,3.5,2.5,5.4,2c1.1-0.3,2.2-1.7,3.3-1c0.3,0.2,0.6,1.3,1.2,1.6c0.7,0.3,1.4,0.3,2,0
			c1.5-0.7,2.2-2.6,3-3.9c0.3,2.6,2.4,3.4,4.8,3.2c2.5-0.2,3.6-2.2,5.8-3c0.2,4.4,6,2.8,8.2,1.1c0.5,3.4,4.1,3.7,6.7,2.6
			c0.3-0.1,1.2-0.8,1.6-0.8c1.1,0.1,0.2,0.2,0.8,0.6c1.2,0.7,1.5,2,3.2,1.2C177.6,65.5,180.5,56.6,179.6,53.4z"/>
		<circle id="XMLID_447_" class="st0" cx="163.9" cy="42.6" r="2.3"/>
	</g>
	<g id="XMLID_446_">
		<g id="XMLID_466_">
			<line id="XMLID_526_" class="st1" x1="282.7" y1="68.8" x2="283.7" y2="42.5"/>
			<line id="XMLID_525_" class="st1" x1="283.7" y1="42.5" x2="284.5" y2="31.5"/>
			<line id="XMLID_524_" class="st1" x1="284.5" y1="31.5" x2="284.5" y2="27.8"/>
			<line id="XMLID_523_" class="st1" x1="295.3" y1="27.8" x2="280.2" y2="27.8"/>
			<line id="XMLID_522_" class="st1" x1="280.2" y1="27.8" x2="280.2" y2="22.7"/>
			<line id="XMLID_521_" class="st1" x1="280.2" y1="22.7" x2="295.3" y2="22.7"/>
			<line id="XMLID_520_" class="st1" x1="282" y1="22.7" x2="282" y2="19.5"/>
			<line id="XMLID_519_" class="st1" x1="282" y1="19.5" x2="293.1" y2="14.4"/>
			<line id="XMLID_518_" class="st1" x1="293.1" y1="14.4" x2="293.1" y2="22.7"/>
			<line id="XMLID_517_" class="st1" x1="289.8" y1="15.9" x2="289.8" y2="22.7"/>
			<line id="XMLID_516_" class="st1" x1="287" y1="17.2" x2="287" y2="22.7"/>
			<line id="XMLID_515_" class="st1" x1="283.8" y1="18.7" x2="283.8" y2="22.7"/>
			<line id="XMLID_514_" class="st1" x1="282.9" y1="19.1" x2="282.9" y2="14.4"/>
			<line id="XMLID_513_" class="st1" x1="282.9" y1="14.4" x2="284.9" y2="14.4"/>
			<line id="XMLID_512_" class="st1" x1="284.9" y1="14.4" x2="284.9" y2="18.1"/>
			<line id="XMLID_511_" class="st1" x1="286.5" y1="17.4" x2="286.5" y2="15"/>
			<line id="XMLID_510_" class="st1" x1="286.5" y1="15" x2="288.4" y2="15"/>
			<line id="XMLID_509_" class="st1" x1="288.4" y1="15" x2="288.4" y2="16.6"/>
			<line id="XMLID_508_" class="st1" x1="287.6" y1="15" x2="287.6" y2="3.9"/>
			<line id="XMLID_507_" class="st1" x1="282.1" y1="77.9" x2="293.8" y2="77.9"/>
			<line id="XMLID_506_" class="st1" x1="282.1" y1="77.9" x2="282.7" y2="68.8"/>
			<line id="XMLID_505_" class="st1" x1="293.8" y1="77.9" x2="292.1" y2="42.5"/>
			<line id="XMLID_504_" class="st1" x1="292.1" y1="42.5" x2="291.6" y2="31.5"/>
			<line id="XMLID_503_" class="st1" x1="295.3" y1="22.7" x2="295.3" y2="27.8"/>
			<line id="XMLID_502_" class="st1" x1="291.6" y1="31.5" x2="291.5" y2="27.8"/>
			<line id="XMLID_501_" class="st1" x1="282.4" y1="72.6" x2="293.6" y2="72.6"/>
			<line id="XMLID_500_" class="st1" x1="282.7" y1="68.3" x2="293.4" y2="68.3"/>
			<line id="XMLID_499_" class="st1" x1="282.9" y1="63.6" x2="293.1" y2="63.6"/>
			<line id="XMLID_498_" class="st1" x1="283" y1="59.1" x2="292.9" y2="59.1"/>
			<line id="XMLID_497_" class="st1" x1="283.2" y1="54.7" x2="292.7" y2="54.7"/>
			<line id="XMLID_496_" class="st1" x1="283.4" y1="50.4" x2="292.5" y2="50.4"/>
			<line id="XMLID_495_" class="st1" x1="283.5" y1="46.4" x2="292.4" y2="46.4"/>
			<line id="XMLID_494_" class="st1" x1="283.7" y1="42.3" x2="292.1" y2="42.3"/>
			<line id="XMLID_493_" class="st1" x1="284" y1="38.4" x2="292" y2="38.4"/>
			<line id="XMLID_492_" class="st1" x1="284.3" y1="35" x2="291.8" y2="35"/>
			<line id="XMLID_491_" class="st1" x1="284.5" y1="31.5" x2="291.6" y2="31.5"/>
			<line id="XMLID_490_" class="st1" x1="284.5" y1="27.8" x2="291.6" y2="31.5"/>
			<line id="XMLID_489_" class="st1" x1="284.5" y1="31.5" x2="291.5" y2="27.8"/>
			<line id="XMLID_488_" class="st1" x1="284.5" y1="31.5" x2="291.8" y2="35"/>
			<line id="XMLID_487_" class="st1" x1="284.3" y1="35" x2="291.6" y2="31.5"/>
			<line id="XMLID_486_" class="st1" x1="284.3" y1="35" x2="291.8" y2="38.4"/>
			<line id="XMLID_485_" class="st1" x1="284" y1="38.4" x2="291.7" y2="35"/>
			<line id="XMLID_484_" class="st1" x1="284" y1="38.4" x2="292.1" y2="42.3"/>
			<line id="XMLID_483_" class="st1" x1="283.7" y1="42.3" x2="292" y2="38.4"/>
			<line id="XMLID_482_" class="st1" x1="283.7" y1="42.3" x2="292.4" y2="46.4"/>
			<line id="XMLID_481_" class="st1" x1="283.6" y1="46.4" x2="292.1" y2="42.3"/>
			<line id="XMLID_480_" class="st1" x1="283.6" y1="46.4" x2="292.5" y2="50.4"/>
			<line id="XMLID_479_" class="st1" x1="283.4" y1="50.4" x2="292.4" y2="46.4"/>
			<line id="XMLID_478_" class="st1" x1="283.4" y1="50.4" x2="292.6" y2="54.7"/>
			<line id="XMLID_477_" class="st1" x1="283.2" y1="54.7" x2="292.5" y2="50.4"/>
			<line id="XMLID_476_" class="st1" x1="283.2" y1="54.7" x2="292.9" y2="59.1"/>
			<line id="XMLID_475_" class="st1" x1="283" y1="59.1" x2="292.6" y2="54.7"/>
			<line id="XMLID_474_" class="st1" x1="283" y1="59.1" x2="293.1" y2="63.6"/>
			<line id="XMLID_473_" class="st1" x1="282.9" y1="63.6" x2="292.9" y2="59.1"/>
			<line id="XMLID_472_" class="st1" x1="282.9" y1="63.6" x2="293.4" y2="68.3"/>
			<line id="XMLID_471_" class="st1" x1="282.7" y1="68.3" x2="293.1" y2="63.6"/>
			<line id="XMLID_470_" class="st1" x1="282.7" y1="68.3" x2="293.6" y2="72.6"/>
			<line id="XMLID_469_" class="st1" x1="282.5" y1="72.6" x2="293.4" y2="68.3"/>
			<line id="XMLID_468_" class="st1" x1="282.4" y1="72.6" x2="293.8" y2="77.9"/>
			<line id="XMLID_467_" class="st1" x1="282.1" y1="77.8" x2="293.5" y2="72.7"/>
		</g>
		<g id="XMLID_210_">
			<line id="XMLID_465_" class="st1" x1="238.5" y1="196" x2="265.5" y2="159.9"/>
			<line id="XMLID_464_" class="st1" x1="265.5" y1="159.9" x2="289.6" y2="159.9"/>
			<line id="XMLID_463_" class="st1" x1="255.9" y1="194.8" x2="274.3" y2="159.9"/>
			<line id="XMLID_462_" class="st1" x1="259.7" y1="167.6" x2="288.5" y2="167.6"/>
			<line id="XMLID_461_" class="st1" x1="246.4" y1="185.5" x2="260.8" y2="185.5"/>
			<line id="XMLID_460_" class="st1" x1="253" y1="176.6" x2="265.5" y2="176.6"/>
			<line id="XMLID_459_" class="st1" x1="239.4" y1="194.8" x2="255.9" y2="194.8"/>
			<line id="XMLID_458_" class="st1" x1="238.5" y1="196" x2="261" y2="196"/>
			<line id="XMLID_457_" class="st1" x1="246.4" y1="185.5" x2="265.5" y2="176.6"/>
			<line id="XMLID_456_" class="st1" x1="253" y1="176.6" x2="260.8" y2="185.5"/>
			<line id="XMLID_455_" class="st1" x1="246.4" y1="185.5" x2="255.9" y2="194.8"/>
			<line id="XMLID_454_" class="st1" x1="239.4" y1="194.8" x2="260.8" y2="185.5"/>
			<line id="XMLID_453_" class="st1" x1="253.1" y1="176.4" x2="270.2" y2="167.6"/>
			<line id="XMLID_452_" class="st1" x1="259.7" y1="167.6" x2="265.5" y2="176.6"/>
			<line id="XMLID_451_" class="st1" x1="259.7" y1="167.6" x2="274.3" y2="159.9"/>
			<line id="XMLID_450_" class="st1" x1="265.5" y1="159.9" x2="270.2" y2="167.6"/>
			<line id="XMLID_449_" class="st1" x1="270.2" y1="167.6" x2="280.6" y2="159.9"/>
			<line id="XMLID_448_" class="st1" x1="271.9" y1="164.4" x2="277.5" y2="159.9"/>
			<line id="XMLID_357_" class="st1" x1="273.7" y1="167.6" x2="283.1" y2="159.9"/>
			<line id="XMLID_356_" class="st1" x1="276.7" y1="167.6" x2="285.6" y2="159.9"/>
			<line id="XMLID_355_" class="st1" x1="279.6" y1="167.6" x2="288.3" y2="159.9"/>
			<line id="XMLID_354_" class="st1" x1="282.4" y1="167.6" x2="288.5" y2="162.1"/>
			<line id="XMLID_353_" class="st1" x1="285.2" y1="167.6" x2="288.5" y2="164.2"/>
			<line id="XMLID_352_" class="st1" x1="274.3" y1="159.9" x2="283.3" y2="167.6"/>
			<line id="XMLID_351_" class="st1" x1="276.7" y1="159.9" x2="286.4" y2="167.6"/>
			<line id="XMLID_350_" class="st1" x1="279.3" y1="159.9" x2="288.7" y2="167.5"/>
			<line id="XMLID_349_" class="st1" x1="282.4" y1="159.9" x2="288.5" y2="165"/>
			<line id="XMLID_348_" class="st1" x1="284.6" y1="159.9" x2="288.5" y2="163.1"/>
			<line id="XMLID_347_" class="st1" x1="273.3" y1="161.7" x2="280.8" y2="167.6"/>
			<line id="XMLID_346_" class="st1" x1="272.7" y1="163" x2="278.4" y2="167.5"/>
			<line id="XMLID_345_" class="st1" x1="271.7" y1="164.9" x2="275.5" y2="167.6"/>
			<line id="XMLID_344_" class="st1" x1="265.5" y1="159.9" x2="262.1" y2="154.5"/>
			<line id="XMLID_343_" class="st1" x1="262.1" y1="154.5" x2="288.5" y2="154.5"/>
			<line id="XMLID_342_" class="st1" x1="262.1" y1="154.5" x2="262.1" y2="149"/>
			<line id="XMLID_341_" class="st1" x1="262.1" y1="149" x2="288.5" y2="149"/>
			<line id="XMLID_340_" class="st1" x1="263.1" y1="149" x2="263.1" y2="154.5"/>
			<line id="XMLID_339_" class="st1" x1="264.8" y1="149" x2="264.8" y2="154.5"/>
			<line id="XMLID_338_" class="st1" x1="265.8" y1="149" x2="265.8" y2="154.5"/>
			<line id="XMLID_337_" class="st1" x1="267.4" y1="149" x2="267.4" y2="154.5"/>
			<line id="XMLID_336_" class="st1" x1="268.7" y1="149" x2="268.7" y2="154.5"/>
			<line id="XMLID_335_" class="st1" x1="271.3" y1="149" x2="271.3" y2="154.5"/>
			<line id="XMLID_334_" class="st1" x1="274.1" y1="149" x2="274.1" y2="154.5"/>
			<line id="XMLID_333_" class="st1" x1="275.8" y1="149" x2="275.8" y2="154.5"/>
			<line id="XMLID_332_" class="st1" x1="276.9" y1="149" x2="276.9" y2="154.6"/>
			<line id="XMLID_331_" class="st1" x1="279.6" y1="149" x2="279.6" y2="154.3"/>
			<line id="XMLID_330_" class="st1" x1="278.4" y1="149" x2="278.4" y2="154.5"/>
			<line id="XMLID_329_" class="st1" x1="282.2" y1="149" x2="282.2" y2="154.5"/>
			<line id="XMLID_328_" class="st1" x1="281.2" y1="149" x2="281.2" y2="154.5"/>
			<line id="XMLID_327_" class="st1" x1="283.9" y1="149" x2="283.9" y2="154.5"/>
			<line id="XMLID_326_" class="st1" x1="285" y1="149" x2="285" y2="154.5"/>
			<line id="XMLID_325_" class="st1" x1="287.7" y1="149" x2="287.7" y2="154.5"/>
			<line id="XMLID_324_" class="st1" x1="286.4" y1="149" x2="286.4" y2="154.5"/>
			<line id="XMLID_323_" class="st1" x1="269.7" y1="149" x2="275.3" y2="128.4"/>
			<line id="XMLID_322_" class="st1" x1="278.2" y1="149" x2="282.4" y2="128.4"/>
			<line id="XMLID_321_" class="st1" x1="273.6" y1="134.8" x2="281.2" y2="134.8"/>
			<line id="XMLID_320_" class="st1" x1="271.8" y1="141.5" x2="279.7" y2="141.5"/>
			<line id="XMLID_319_" class="st1" x1="271.8" y1="141.3" x2="281.2" y2="134.8"/>
			<line id="XMLID_318_" class="st1" x1="273.6" y1="134.8" x2="279.7" y2="141.5"/>
			<line id="XMLID_317_" class="st1" x1="277.4" y1="134.8" x2="275.5" y2="141.5"/>
			<line id="XMLID_316_" class="st1" x1="273.6" y1="134.8" x2="282.4" y2="128.4"/>
			<line id="XMLID_315_" class="st1" x1="275.3" y1="128.4" x2="288.5" y2="128.4"/>
			<line id="XMLID_314_" class="st1" x1="275.3" y1="128.4" x2="281.2" y2="134.8"/>
			<line id="XMLID_313_" class="st1" x1="279.1" y1="128.4" x2="277" y2="134.8"/>
			<line id="XMLID_312_" class="st1" x1="271.8" y1="141.5" x2="278.2" y2="149"/>
			<line id="XMLID_311_" class="st1" x1="269.7" y1="149" x2="279.7" y2="141.5"/>
			<line id="XMLID_310_" class="st1" x1="275.5" y1="141.5" x2="274.1" y2="149"/>
			<line id="XMLID_309_" class="st1" x1="275.3" y1="128.4" x2="277" y2="121.3"/>
			<line id="XMLID_308_" class="st1" x1="276.2" y1="121.3" x2="288.5" y2="121.3"/>
			<line id="XMLID_307_" class="st1" x1="275.9" y1="126.2" x2="288.5" y2="126.2"/>
			<line id="XMLID_306_" class="st1" x1="276.2" y1="121.3" x2="275" y2="116.4"/>
			<line id="XMLID_305_" class="st1" x1="275" y1="116.4" x2="288.6" y2="116.4"/>
			<line id="XMLID_304_" class="st1" x1="276.5" y1="116.4" x2="277.6" y2="121.3"/>
			<line id="XMLID_303_" class="st1" x1="277.6" y1="116.4" x2="278.5" y2="121.3"/>
			<line id="XMLID_302_" class="st1" x1="279.1" y1="116.4" x2="279.9" y2="121.3"/>
			<line id="XMLID_301_" class="st1" x1="280.8" y1="116.4" x2="281.5" y2="121.3"/>
			<line id="XMLID_300_" class="st1" x1="282.2" y1="116.4" x2="282.7" y2="121.3"/>
			<line id="XMLID_299_" class="st1" x1="283.6" y1="116.4" x2="284.2" y2="121.3"/>
			<line id="XMLID_298_" class="st1" x1="285.1" y1="116.4" x2="285.8" y2="121.3"/>
			<line id="XMLID_297_" class="st1" x1="287" y1="116.4" x2="287.3" y2="121.3"/>
			<line id="XMLID_296_" class="st1" x1="275.6" y1="116.4" x2="275.6" y2="114.6"/>
			<line id="XMLID_295_" class="st1" x1="275.6" y1="114.6" x2="288.6" y2="114.6"/>
			<line id="XMLID_294_" class="st1" x1="278.8" y1="114.6" x2="278.8" y2="116.4"/>
			<line id="XMLID_293_" class="st1" x1="285.8" y1="114.6" x2="285.8" y2="116.4"/>
			<line id="XMLID_292_" class="st1" x1="278.8" y1="114.6" x2="282.1" y2="77.9"/>
			<line id="XMLID_291_" class="st1" x1="278.8" y1="113.6" x2="285.1" y2="113.6"/>
			<line id="XMLID_290_" class="st1" x1="285.1" y1="114.6" x2="288.4" y2="77.9"/>
			<line id="XMLID_289_" class="st1" x1="281.7" y1="82.7" x2="288" y2="82.7"/>
			<line id="XMLID_288_" class="st1" x1="281.2" y1="87.5" x2="287.5" y2="87.5"/>
			<line id="XMLID_287_" class="st1" x1="280.8" y1="92.8" x2="287" y2="92.8"/>
			<line id="XMLID_286_" class="st1" x1="280.3" y1="97.7" x2="286.6" y2="97.7"/>
			<line id="XMLID_285_" class="st1" x1="279.9" y1="102.8" x2="286.1" y2="102.8"/>
			<line id="XMLID_284_" class="st1" x1="279.3" y1="108.2" x2="285.7" y2="108.2"/>
			<line id="XMLID_283_" class="st1" x1="279.3" y1="108.2" x2="285.2" y2="113.6"/>
			<line id="XMLID_282_" class="st1" x1="278.8" y1="113.6" x2="285.7" y2="108.2"/>
			<line id="XMLID_281_" class="st1" x1="279.8" y1="102.8" x2="285.7" y2="108.2"/>
			<line id="XMLID_280_" class="st1" x1="279.3" y1="108.2" x2="286.1" y2="102.8"/>
			<line id="XMLID_279_" class="st1" x1="279.9" y1="102.8" x2="286.6" y2="97.7"/>
			<line id="XMLID_278_" class="st1" x1="280.3" y1="97.7" x2="286.1" y2="102.8"/>
			<line id="XMLID_277_" class="st1" x1="280.3" y1="97.6" x2="287" y2="92.8"/>
			<line id="XMLID_276_" class="st1" x1="280.8" y1="92.9" x2="286.6" y2="97.7"/>
			<line id="XMLID_275_" class="st1" x1="280.8" y1="92.9" x2="287.4" y2="87.5"/>
			<line id="XMLID_274_" class="st1" x1="281.7" y1="82.7" x2="287.4" y2="87.5"/>
			<line id="XMLID_273_" class="st1" x1="281.2" y1="87.5" x2="288" y2="82.7"/>
			<line id="XMLID_272_" class="st1" x1="281.2" y1="87.5" x2="287" y2="92.8"/>
			<line id="XMLID_271_" class="st1" x1="281.7" y1="82.6" x2="288.3" y2="77.9"/>
			<line id="XMLID_270_" class="st1" x1="282.1" y1="77.9" x2="288" y2="82.7"/>
			<line id="XMLID_269_" class="st1" x1="265.7" y1="176.4" x2="267.2" y2="178.9"/>
			<line id="XMLID_268_" class="st1" x1="266.8" y1="174.1" x2="268.9" y2="177.2"/>
			<line id="XMLID_267_" class="st1" x1="268.1" y1="172" x2="270.6" y2="175.7"/>
			<line id="XMLID_266_" class="st1" x1="269.7" y1="169" x2="272.7" y2="174.3"/>
			<line id="XMLID_265_" class="st1" x1="272.6" y1="167.6" x2="274.9" y2="173"/>
			<line id="XMLID_264_" class="st1" x1="275.5" y1="167.6" x2="277.1" y2="172"/>
			<line id="XMLID_263_" class="st1" x1="278.4" y1="167.6" x2="279.3" y2="171.1"/>
			<line id="XMLID_262_" class="st1" x1="281.2" y1="167.6" x2="281.3" y2="170.6"/>
			<line id="XMLID_261_" class="st1" x1="283.3" y1="167.6" x2="283.3" y2="170.2"/>
			<line id="XMLID_260_" class="st1" x1="286" y1="167.6" x2="286.1" y2="169.8"/>
			<line id="XMLID_259_" class="st1" x1="288.3" y1="167.6" x2="288.3" y2="169.7"/>
			<line id="XMLID_258_" class="st1" x1="263.4" y1="154.5" x2="264.6" y2="158.5"/>
			<line id="XMLID_257_" class="st1" x1="264.7" y1="154.5" x2="266.2" y2="159.9"/>
			<line id="XMLID_256_" class="st1" x1="265.6" y1="154.5" x2="267.1" y2="159.9"/>
			<line id="XMLID_255_" class="st1" x1="266.5" y1="154.5" x2="268" y2="159.9"/>
			<line id="XMLID_254_" class="st1" x1="267.4" y1="154.5" x2="268.9" y2="159.9"/>
			<line id="XMLID_253_" class="st1" x1="268.3" y1="154.5" x2="269.8" y2="159.9"/>
			<line id="XMLID_252_" class="st1" x1="269.1" y1="154.5" x2="270.7" y2="159.9"/>
			<line id="XMLID_251_" class="st1" x1="270" y1="154.5" x2="271.6" y2="159.9"/>
			<line id="XMLID_250_" class="st1" x1="270.9" y1="154.5" x2="272.5" y2="159.9"/>
			<line id="XMLID_249_" class="st1" x1="271.8" y1="154.5" x2="273.4" y2="159.9"/>
			<line id="XMLID_248_" class="st1" x1="272.7" y1="154.5" x2="274.3" y2="159.9"/>
			<line id="XMLID_247_" class="st1" x1="273.6" y1="154.5" x2="275.2" y2="159.9"/>
			<line id="XMLID_246_" class="st1" x1="274.5" y1="154.5" x2="276.1" y2="159.9"/>
			<line id="XMLID_245_" class="st1" x1="275.4" y1="154.5" x2="277" y2="159.9"/>
			<line id="XMLID_244_" class="st1" x1="276.3" y1="154.5" x2="277.9" y2="159.9"/>
			<line id="XMLID_243_" class="st1" x1="277.2" y1="154.5" x2="278.8" y2="159.9"/>
			<line id="XMLID_242_" class="st1" x1="278.1" y1="154.5" x2="279.7" y2="159.9"/>
			<line id="XMLID_241_" class="st1" x1="279" y1="154.5" x2="280.6" y2="159.9"/>
			<line id="XMLID_240_" class="st1" x1="279.9" y1="154.5" x2="281.5" y2="159.9"/>
			<line id="XMLID_239_" class="st1" x1="280.8" y1="154.5" x2="282.4" y2="159.9"/>
			<line id="XMLID_238_" class="st1" x1="281.7" y1="154.5" x2="283.3" y2="159.9"/>
			<line id="XMLID_237_" class="st1" x1="282.9" y1="154.5" x2="284.2" y2="159.9"/>
			<line id="XMLID_236_" class="st1" x1="284.2" y1="154.5" x2="285.1" y2="159.9"/>
			<line id="XMLID_235_" class="st1" x1="285.4" y1="154.5" x2="286" y2="159.9"/>
			<line id="XMLID_234_" class="st1" x1="286.3" y1="154.5" x2="286.9" y2="159.9"/>
			<line id="XMLID_233_" class="st1" x1="287.4" y1="154.5" x2="287.8" y2="159.9"/>
			<line id="XMLID_232_" class="st1" x1="288.5" y1="154.5" x2="288.7" y2="159.9"/>
			<path id="XMLID_231_" class="st1" d="M289.6,169.8c-0.5,0-1,0-1.4,0c-15,0-27.3,11.5-28.6,26.2"/>
			<path id="XMLID_230_" class="st1" d="M289.6,170.9c-0.5,0-1,0-1.6,0c-13.9,0-25.3,11-27,25.1"/>
			<g id="XMLID_220_">
				<line id="XMLID_229_" class="st1" x1="279.9" y1="121.3" x2="279.7" y2="126.2"/>
				<line id="XMLID_228_" class="st1" x1="283.4" y1="121.3" x2="283.1" y2="126.2"/>
				<line id="XMLID_227_" class="st1" x1="288.2" y1="121.3" x2="288.1" y2="126.2"/>
				<line id="XMLID_226_" class="st1" x1="279.8" y1="121.3" x2="275.9" y2="126.2"/>
				<line id="XMLID_225_" class="st1" x1="277" y1="121.3" x2="279.7" y2="126.2"/>
				<line id="XMLID_224_" class="st1" x1="280" y1="121.3" x2="283.1" y2="126.2"/>
				<line id="XMLID_223_" class="st1" x1="279.7" y1="126.2" x2="283.4" y2="121.3"/>
				<line id="XMLID_222_" class="st1" x1="283.4" y1="121.3" x2="288.1" y2="126.2"/>
				<line id="XMLID_221_" class="st1" x1="283.1" y1="126.2" x2="288.2" y2="121.3"/>
			</g>
			<g id="XMLID_153_">
				<line id="XMLID_219_" class="st1" x1="275.9" y1="126.2" x2="278.1" y2="128.4"/>
				<line id="XMLID_218_" class="st1" x1="275.6" y1="127.1" x2="276.9" y2="128.4"/>
				<line id="XMLID_217_" class="st1" x1="277" y1="126.2" x2="279.2" y2="128.4"/>
				<line id="XMLID_216_" class="st1" x1="278.1" y1="126.2" x2="280.3" y2="128.4"/>
				<line id="XMLID_215_" class="st1" x1="279.2" y1="126.2" x2="281.4" y2="128.4"/>
				<line id="XMLID_214_" class="st1" x1="280.3" y1="126.2" x2="282.6" y2="128.4"/>
				<line id="XMLID_213_" class="st1" x1="281.5" y1="126.2" x2="283.7" y2="128.4"/>
				<line id="XMLID_212_" class="st1" x1="282.6" y1="126.2" x2="284.8" y2="128.4"/>
				<line id="XMLID_211_" class="st1" x1="283.7" y1="126.2" x2="285.9" y2="128.4"/>
				<line id="XMLID_168_" class="st1" x1="284.8" y1="126.2" x2="287.1" y2="128.4"/>
				<line id="XMLID_167_" class="st1" x1="286" y1="126.2" x2="288.2" y2="128.4"/>
				<line id="XMLID_166_" class="st1" x1="287.1" y1="126.2" x2="288.6" y2="127.7"/>
				<line id="XMLID_165_" class="st1" x1="288.2" y1="126.2" x2="286" y2="128.4"/>
				<line id="XMLID_164_" class="st1" x1="288.6" y1="126.9" x2="287.1" y2="128.4"/>
				<line id="XMLID_163_" class="st1" x1="287.1" y1="126.2" x2="284.8" y2="128.4"/>
				<line id="XMLID_162_" class="st1" x1="285.9" y1="126.2" x2="283.7" y2="128.4"/>
				<line id="XMLID_161_" class="st1" x1="284.8" y1="126.2" x2="282.6" y2="128.4"/>
				<line id="XMLID_160_" class="st1" x1="283.7" y1="126.2" x2="281.5" y2="128.4"/>
				<line id="XMLID_159_" class="st1" x1="282.6" y1="126.2" x2="280.3" y2="128.4"/>
				<line id="XMLID_158_" class="st1" x1="281.4" y1="126.2" x2="279.2" y2="128.4"/>
				<line id="XMLID_157_" class="st1" x1="280.3" y1="126.2" x2="278.1" y2="128.4"/>
				<line id="XMLID_156_" class="st1" x1="279.2" y1="126.2" x2="277" y2="128.4"/>
				<line id="XMLID_155_" class="st1" x1="278.1" y1="126.2" x2="275.9" y2="128.4"/>
				<line id="XMLID_154_" class="st1" x1="276.9" y1="126.2" x2="275.5" y2="127.7"/>
			</g>
		</g>
		<g id="XMLID_21_">
			<line id="XMLID_427_" class="st1" x1="337.7" y1="196" x2="310.7" y2="159.9"/>
			<line id="XMLID_426_" class="st1" x1="310.7" y1="159.9" x2="286.6" y2="159.9"/>
			<line id="XMLID_425_" class="st1" x1="320.3" y1="194.8" x2="301.9" y2="159.9"/>
			<line id="XMLID_424_" class="st1" x1="316.5" y1="167.6" x2="287.7" y2="167.6"/>
			<line id="XMLID_423_" class="st1" x1="329.8" y1="185.5" x2="315.4" y2="185.5"/>
			<line id="XMLID_422_" class="st1" x1="323.2" y1="176.6" x2="310.7" y2="176.6"/>
			<line id="XMLID_421_" class="st1" x1="336.8" y1="194.8" x2="320.3" y2="194.8"/>
			<line id="XMLID_420_" class="st1" x1="337.7" y1="196" x2="315.1" y2="196"/>
			<line id="XMLID_419_" class="st1" x1="329.8" y1="185.5" x2="310.7" y2="176.6"/>
			<line id="XMLID_418_" class="st1" x1="323.2" y1="176.6" x2="315.4" y2="185.5"/>
			<line id="XMLID_417_" class="st1" x1="329.8" y1="185.5" x2="320.3" y2="194.8"/>
			<line id="XMLID_416_" class="st1" x1="336.8" y1="194.8" x2="315.4" y2="185.5"/>
			<line id="XMLID_415_" class="st1" x1="323.1" y1="176.4" x2="305.9" y2="167.6"/>
			<line id="XMLID_414_" class="st1" x1="316.5" y1="167.6" x2="310.7" y2="176.6"/>
			<line id="XMLID_413_" class="st1" x1="316.5" y1="167.6" x2="301.9" y2="159.9"/>
			<line id="XMLID_412_" class="st1" x1="310.7" y1="159.9" x2="305.9" y2="167.6"/>
			<line id="XMLID_411_" class="st1" x1="305.9" y1="167.6" x2="295.6" y2="159.9"/>
			<line id="XMLID_410_" class="st1" x1="304.2" y1="164.4" x2="298.6" y2="159.9"/>
			<line id="XMLID_409_" class="st1" x1="302.5" y1="167.6" x2="293.1" y2="159.9"/>
			<line id="XMLID_408_" class="st1" x1="299.5" y1="167.6" x2="290.5" y2="159.9"/>
			<line id="XMLID_407_" class="st1" x1="296.6" y1="167.6" x2="287.9" y2="159.9"/>
			<line id="XMLID_406_" class="st1" x1="293.8" y1="167.6" x2="287.7" y2="162.1"/>
			<line id="XMLID_405_" class="st1" x1="291" y1="167.6" x2="287.7" y2="164.2"/>
			<line id="XMLID_404_" class="st1" x1="301.9" y1="159.9" x2="292.9" y2="167.6"/>
			<line id="XMLID_403_" class="st1" x1="299.5" y1="159.9" x2="289.8" y2="167.6"/>
			<line id="XMLID_402_" class="st1" x1="296.8" y1="159.9" x2="287.4" y2="167.5"/>
			<line id="XMLID_401_" class="st1" x1="293.8" y1="159.9" x2="287.7" y2="165"/>
			<line id="XMLID_400_" class="st1" x1="291.5" y1="159.9" x2="287.7" y2="163.1"/>
			<line id="XMLID_399_" class="st1" x1="302.8" y1="161.7" x2="295.4" y2="167.6"/>
			<line id="XMLID_398_" class="st1" x1="303.5" y1="163" x2="297.8" y2="167.5"/>
			<line id="XMLID_397_" class="st1" x1="304.5" y1="164.9" x2="300.6" y2="167.6"/>
			<line id="XMLID_396_" class="st1" x1="310.7" y1="159.9" x2="314.1" y2="154.5"/>
			<line id="XMLID_395_" class="st1" x1="314.1" y1="154.5" x2="287.7" y2="154.5"/>
			<line id="XMLID_394_" class="st1" x1="314.1" y1="154.5" x2="314.1" y2="149"/>
			<line id="XMLID_393_" class="st1" x1="314.1" y1="149" x2="287.7" y2="149"/>
			<line id="XMLID_392_" class="st1" x1="313" y1="149" x2="313" y2="154.5"/>
			<line id="XMLID_391_" class="st1" x1="311.4" y1="149" x2="311.4" y2="154.5"/>
			<line id="XMLID_390_" class="st1" x1="310.3" y1="149" x2="310.3" y2="154.5"/>
			<line id="XMLID_389_" class="st1" x1="308.8" y1="149" x2="308.8" y2="154.5"/>
			<line id="XMLID_388_" class="st1" x1="307.5" y1="149" x2="307.5" y2="154.5"/>
			<line id="XMLID_387_" class="st1" x1="304.8" y1="149" x2="304.8" y2="154.5"/>
			<line id="XMLID_386_" class="st1" x1="302.1" y1="149" x2="302.1" y2="154.5"/>
			<line id="XMLID_385_" class="st1" x1="300.4" y1="149" x2="300.4" y2="154.5"/>
			<line id="XMLID_384_" class="st1" x1="299.3" y1="149" x2="299.3" y2="154.6"/>
			<line id="XMLID_383_" class="st1" x1="296.6" y1="149" x2="296.6" y2="154.3"/>
			<line id="XMLID_382_" class="st1" x1="297.8" y1="149" x2="297.8" y2="154.5"/>
			<line id="XMLID_381_" class="st1" x1="294" y1="149" x2="294" y2="154.5"/>
			<line id="XMLID_380_" class="st1" x1="295" y1="149" x2="295" y2="154.5"/>
			<line id="XMLID_379_" class="st1" x1="292.2" y1="149" x2="292.2" y2="154.5"/>
			<line id="XMLID_378_" class="st1" x1="291.2" y1="149" x2="291.2" y2="154.5"/>
			<line id="XMLID_377_" class="st1" x1="288.5" y1="149" x2="288.5" y2="154.5"/>
			<line id="XMLID_376_" class="st1" x1="289.8" y1="149" x2="289.8" y2="154.5"/>
			<line id="XMLID_375_" class="st1" x1="306.4" y1="149" x2="300.9" y2="128.4"/>
			<line id="XMLID_374_" class="st1" x1="298" y1="149" x2="293.8" y2="128.4"/>
			<line id="XMLID_373_" class="st1" x1="302.6" y1="134.8" x2="295" y2="134.8"/>
			<line id="XMLID_372_" class="st1" x1="304.4" y1="141.5" x2="296.5" y2="141.5"/>
			<line id="XMLID_371_" class="st1" x1="304.4" y1="141.3" x2="295" y2="134.8"/>
			<line id="XMLID_370_" class="st1" x1="302.6" y1="134.8" x2="296.5" y2="141.5"/>
			<line id="XMLID_369_" class="st1" x1="298.8" y1="134.8" x2="300.6" y2="141.5"/>
			<line id="XMLID_368_" class="st1" x1="302.6" y1="134.8" x2="293.8" y2="128.4"/>
			<line id="XMLID_367_" class="st1" x1="300.9" y1="128.4" x2="287.7" y2="128.4"/>
			<line id="XMLID_366_" class="st1" x1="300.9" y1="128.4" x2="295" y2="134.8"/>
			<line id="XMLID_365_" class="st1" x1="297.1" y1="128.4" x2="299.1" y2="134.8"/>
			<line id="XMLID_364_" class="st1" x1="304.4" y1="141.5" x2="298" y2="149"/>
			<line id="XMLID_363_" class="st1" x1="306.4" y1="149" x2="296.5" y2="141.5"/>
			<line id="XMLID_362_" class="st1" x1="300.6" y1="141.5" x2="302.1" y2="149"/>
			<line id="XMLID_361_" class="st1" x1="300.9" y1="128.4" x2="299.1" y2="121.3"/>
			<line id="XMLID_360_" class="st1" x1="300" y1="121.3" x2="287.7" y2="121.3"/>
			<line id="XMLID_359_" class="st1" x1="300.3" y1="126.2" x2="287.7" y2="126.2"/>
			<line id="XMLID_358_" class="st1" x1="300" y1="121.3" x2="301.2" y2="116.4"/>
			<line id="XMLID_209_" class="st1" x1="301.2" y1="116.4" x2="287.5" y2="116.4"/>
			<line id="XMLID_208_" class="st1" x1="299.7" y1="116.4" x2="298.6" y2="121.3"/>
			<line id="XMLID_207_" class="st1" x1="298.6" y1="116.4" x2="297.6" y2="121.3"/>
			<line id="XMLID_206_" class="st1" x1="297.1" y1="116.4" x2="296.2" y2="121.3"/>
			<line id="XMLID_205_" class="st1" x1="295.3" y1="116.4" x2="294.7" y2="121.3"/>
			<line id="XMLID_204_" class="st1" x1="294" y1="116.4" x2="293.5" y2="121.3"/>
			<line id="XMLID_203_" class="st1" x1="292.5" y1="116.4" x2="291.9" y2="121.3"/>
			<line id="XMLID_202_" class="st1" x1="291" y1="116.4" x2="290.3" y2="121.3"/>
			<line id="XMLID_201_" class="st1" x1="289.2" y1="116.4" x2="288.8" y2="121.3"/>
			<line id="XMLID_200_" class="st1" x1="300.6" y1="116.4" x2="300.6" y2="114.6"/>
			<line id="XMLID_199_" class="st1" x1="300.6" y1="114.6" x2="287.5" y2="114.6"/>
			<line id="XMLID_198_" class="st1" x1="297.4" y1="114.6" x2="297.4" y2="116.4"/>
			<line id="XMLID_197_" class="st1" x1="290.3" y1="114.6" x2="290.3" y2="116.4"/>
			<line id="XMLID_196_" class="st1" x1="297.4" y1="114.6" x2="294" y2="77.9"/>
			<line id="XMLID_195_" class="st1" x1="297.3" y1="113.6" x2="291" y2="113.6"/>
			<line id="XMLID_194_" class="st1" x1="291" y1="114.6" x2="287.8" y2="77.9"/>
			<line id="XMLID_193_" class="st1" x1="294.5" y1="82.7" x2="288.2" y2="82.7"/>
			<line id="XMLID_192_" class="st1" x1="294.9" y1="87.5" x2="288.7" y2="87.5"/>
			<line id="XMLID_191_" class="st1" x1="295.4" y1="92.8" x2="289.1" y2="92.8"/>
			<line id="XMLID_190_" class="st1" x1="295.9" y1="97.7" x2="289.6" y2="97.7"/>
			<line id="XMLID_189_" class="st1" x1="296.2" y1="102.8" x2="290" y2="102.8"/>
			<line id="XMLID_188_" class="st1" x1="296.8" y1="108.2" x2="290.5" y2="108.2"/>
			<line id="XMLID_187_" class="st1" x1="296.8" y1="108.2" x2="291" y2="113.6"/>
			<line id="XMLID_186_" class="st1" x1="297.3" y1="113.6" x2="290.5" y2="108.2"/>
			<line id="XMLID_185_" class="st1" x1="296.3" y1="102.8" x2="290.5" y2="108.2"/>
			<line id="XMLID_184_" class="st1" x1="296.8" y1="108.2" x2="290" y2="102.8"/>
			<line id="XMLID_183_" class="st1" x1="296.2" y1="102.8" x2="289.6" y2="97.7"/>
			<line id="XMLID_182_" class="st1" x1="295.9" y1="97.7" x2="290" y2="102.8"/>
			<line id="XMLID_181_" class="st1" x1="295.8" y1="97.6" x2="289.1" y2="92.8"/>
			<line id="XMLID_180_" class="st1" x1="295.4" y1="92.9" x2="289.6" y2="97.7"/>
			<line id="XMLID_179_" class="st1" x1="295.4" y1="92.9" x2="288.7" y2="87.5"/>
			<line id="XMLID_178_" class="st1" x1="294.5" y1="82.7" x2="288.7" y2="87.5"/>
			<line id="XMLID_177_" class="st1" x1="294.9" y1="87.5" x2="288.2" y2="82.7"/>
			<line id="XMLID_176_" class="st1" x1="294.9" y1="87.5" x2="289.1" y2="92.8"/>
			<line id="XMLID_175_" class="st1" x1="294.5" y1="82.6" x2="287.9" y2="77.9"/>
			<line id="XMLID_174_" class="st1" x1="294" y1="77.9" x2="288.2" y2="82.7"/>
			<line id="XMLID_173_" class="st1" x1="310.5" y1="176.4" x2="309" y2="178.9"/>
			<line id="XMLID_172_" class="st1" x1="309.4" y1="174.1" x2="307.3" y2="177.2"/>
			<line id="XMLID_171_" class="st1" x1="308.1" y1="172" x2="305.5" y2="175.7"/>
			<line id="XMLID_170_" class="st1" x1="306.4" y1="169" x2="303.5" y2="174.3"/>
			<line id="XMLID_169_" class="st1" x1="303.6" y1="167.6" x2="301.2" y2="173"/>
			<line id="XMLID_152_" class="st1" x1="300.6" y1="167.6" x2="299.1" y2="172"/>
			<line id="XMLID_151_" class="st1" x1="297.8" y1="167.6" x2="296.8" y2="171.1"/>
			<line id="XMLID_150_" class="st1" x1="295" y1="167.6" x2="294.9" y2="170.6"/>
			<line id="XMLID_149_" class="st1" x1="292.9" y1="167.6" x2="292.9" y2="170.2"/>
			<line id="XMLID_148_" class="st1" x1="290.2" y1="167.6" x2="290.1" y2="169.8"/>
			<line id="XMLID_147_" class="st1" x1="287.9" y1="167.6" x2="287.9" y2="169.7"/>
			<line id="XMLID_146_" class="st1" x1="312.7" y1="154.5" x2="311.6" y2="158.5"/>
			<line id="XMLID_145_" class="st1" x1="311.5" y1="154.5" x2="309.9" y2="159.9"/>
			<line id="XMLID_144_" class="st1" x1="310.6" y1="154.5" x2="309" y2="159.9"/>
			<line id="XMLID_143_" class="st1" x1="309.7" y1="154.5" x2="308.1" y2="159.9"/>
			<line id="XMLID_142_" class="st1" x1="308.8" y1="154.5" x2="307.2" y2="159.9"/>
			<line id="XMLID_141_" class="st1" x1="307.9" y1="154.5" x2="306.3" y2="159.9"/>
			<line id="XMLID_140_" class="st1" x1="307" y1="154.5" x2="305.4" y2="159.9"/>
			<line id="XMLID_139_" class="st1" x1="306.1" y1="154.5" x2="304.5" y2="159.9"/>
			<line id="XMLID_138_" class="st1" x1="305.2" y1="154.5" x2="303.6" y2="159.9"/>
			<line id="XMLID_137_" class="st1" x1="304.3" y1="154.5" x2="302.7" y2="159.9"/>
			<line id="XMLID_136_" class="st1" x1="303.4" y1="154.5" x2="301.8" y2="159.9"/>
			<line id="XMLID_135_" class="st1" x1="302.5" y1="154.5" x2="300.9" y2="159.9"/>
			<line id="XMLID_134_" class="st1" x1="301.6" y1="154.5" x2="300" y2="159.9"/>
			<line id="XMLID_133_" class="st1" x1="300.7" y1="154.5" x2="299.1" y2="159.9"/>
			<line id="XMLID_132_" class="st1" x1="299.8" y1="154.5" x2="298.2" y2="159.9"/>
			<line id="XMLID_131_" class="st1" x1="298.9" y1="154.5" x2="297.3" y2="159.9"/>
			<line id="XMLID_130_" class="st1" x1="298" y1="154.5" x2="296.5" y2="159.9"/>
			<line id="XMLID_129_" class="st1" x1="297.1" y1="154.5" x2="295.6" y2="159.9"/>
			<line id="XMLID_128_" class="st1" x1="296.2" y1="154.5" x2="294.7" y2="159.9"/>
			<line id="XMLID_127_" class="st1" x1="295.3" y1="154.5" x2="293.8" y2="159.9"/>
			<line id="XMLID_126_" class="st1" x1="294.4" y1="154.5" x2="292.9" y2="159.9"/>
			<line id="XMLID_125_" class="st1" x1="293.2" y1="154.5" x2="292" y2="159.9"/>
			<line id="XMLID_124_" class="st1" x1="292" y1="154.5" x2="291.1" y2="159.9"/>
			<line id="XMLID_123_" class="st1" x1="290.8" y1="154.5" x2="290.2" y2="159.9"/>
			<line id="XMLID_122_" class="st1" x1="289.9" y1="154.5" x2="289.3" y2="159.9"/>
			<line id="XMLID_121_" class="st1" x1="288.8" y1="154.5" x2="288.4" y2="159.9"/>
			<line id="XMLID_120_" class="st1" x1="287.7" y1="154.5" x2="287.5" y2="159.9"/>
			<path id="XMLID_119_" class="st1" d="M286.6,169.8c0.5,0,1,0,1.4,0c15,0,27.3,11.5,28.6,26.2"/>
			<path id="XMLID_118_" class="st1" d="M286.6,170.9c0.5,0,1,0,1.6,0c13.9,0,25.3,11,27,25.1"/>
			<g id="XMLID_108_">
				<line id="XMLID_117_" class="st1" x1="296.2" y1="121.3" x2="296.5" y2="126.2"/>
				<line id="XMLID_116_" class="st1" x1="292.8" y1="121.3" x2="293" y2="126.2"/>
				<line id="XMLID_115_" class="st1" x1="288" y1="121.3" x2="288.1" y2="126.2"/>
				<line id="XMLID_114_" class="st1" x1="296.4" y1="121.3" x2="300.3" y2="126.2"/>
				<line id="XMLID_113_" class="st1" x1="299.1" y1="121.3" x2="296.5" y2="126.2"/>
				<line id="XMLID_112_" class="st1" x1="296.1" y1="121.3" x2="293" y2="126.2"/>
				<line id="XMLID_111_" class="st1" x1="296.5" y1="126.2" x2="292.8" y2="121.3"/>
				<line id="XMLID_110_" class="st1" x1="292.8" y1="121.3" x2="288.1" y2="126.2"/>
				<line id="XMLID_109_" class="st1" x1="293" y1="126.2" x2="288" y2="121.3"/>
			</g>
			<g id="XMLID_63_">
				<line id="XMLID_107_" class="st1" x1="300.3" y1="126.2" x2="298.1" y2="128.4"/>
				<line id="XMLID_106_" class="st1" x1="300.6" y1="127.1" x2="299.2" y2="128.4"/>
				<line id="XMLID_105_" class="st1" x1="299.2" y1="126.2" x2="297" y2="128.4"/>
				<line id="XMLID_104_" class="st1" x1="298.1" y1="126.2" x2="295.9" y2="128.4"/>
				<line id="XMLID_103_" class="st1" x1="296.9" y1="126.2" x2="294.7" y2="128.4"/>
				<line id="XMLID_102_" class="st1" x1="295.8" y1="126.2" x2="293.6" y2="128.4"/>
				<line id="XMLID_101_" class="st1" x1="294.7" y1="126.2" x2="292.5" y2="128.4"/>
				<line id="XMLID_100_" class="st1" x1="293.6" y1="126.2" x2="291.4" y2="128.4"/>
				<line id="XMLID_99_" class="st1" x1="292.4" y1="126.2" x2="290.2" y2="128.4"/>
				<line id="XMLID_80_" class="st1" x1="291.3" y1="126.2" x2="289.1" y2="128.4"/>
				<line id="XMLID_79_" class="st1" x1="290.2" y1="126.2" x2="288" y2="128.4"/>
				<line id="XMLID_78_" class="st1" x1="289.1" y1="126.2" x2="287.6" y2="127.7"/>
				<line id="XMLID_77_" class="st1" x1="288" y1="126.2" x2="290.2" y2="128.4"/>
				<line id="XMLID_76_" class="st1" x1="287.6" y1="126.9" x2="289.1" y2="128.4"/>
				<line id="XMLID_75_" class="st1" x1="289.1" y1="126.2" x2="291.3" y2="128.4"/>
				<line id="XMLID_74_" class="st1" x1="290.2" y1="126.2" x2="292.4" y2="128.4"/>
				<line id="XMLID_73_" class="st1" x1="291.4" y1="126.2" x2="293.6" y2="128.4"/>
				<line id="XMLID_72_" class="st1" x1="292.5" y1="126.2" x2="294.7" y2="128.4"/>
				<line id="XMLID_71_" class="st1" x1="293.6" y1="126.2" x2="295.8" y2="128.4"/>
				<line id="XMLID_70_" class="st1" x1="294.7" y1="126.2" x2="296.9" y2="128.4"/>
				<line id="XMLID_69_" class="st1" x1="295.9" y1="126.2" x2="298.1" y2="128.4"/>
				<line id="XMLID_68_" class="st1" x1="297" y1="126.2" x2="299.2" y2="128.4"/>
				<line id="XMLID_67_" class="st1" x1="298.1" y1="126.2" x2="300.3" y2="128.4"/>
				<line id="XMLID_66_" class="st1" x1="299.2" y1="126.2" x2="300.7" y2="127.7"/>
			</g>
		</g>
	</g>
</g>
</svg>
