<svg xmlns="http://www.w3.org/2000/svg" width="152.686" height="75.725" viewBox="0 0 152.686 75.725">
  <g id="Grupo_94" data-name="Grupo 94" transform="translate(-38.68 -136.525)">
    <path id="Trazado_145" data-name="Trazado 145" d="M47.515,238.181c.34,5.938,3.028,8.4,8.057,8.4,4.825,0,7.371-2.457,7.371-5.188H71.3v.273c0,6.485-5.437,12.218-15.767,12.218-11.622,0-16.855-7.781-16.855-18.088v-1.775c0-10.306,5.37-18.088,16.515-18.088,11.078,0,16.107,7.781,16.107,18.088v4.164Zm0-6.552H62.4c-.272-5.734-2.582-8.806-7.408-8.806-4.757,0-7.135,3.072-7.476,8.806" transform="translate(0 -60.944)" fill="#ffeae3"/>
    <path id="Trazado_146" data-name="Trazado 146" d="M205.787,249.647v14.66h-8.835V227.055l-.544-10.238h7.815l.748,4.505c1.971-3.072,5.234-5.393,10.4-5.393,9.855,0,13.457,7.508,13.457,17.883V236c0,10.306-3.6,17.882-13.457,17.882-4.486,0-7.544-1.706-9.583-4.232m0-7.644c1.088,1.706,3.33,4.574,7.068,4.574,5.029,0,7.136-4.232,7.136-10.58v-2.184c0-6.348-2.108-10.942-7.136-10.942-3.738,0-5.98,3.229-7.068,4.935Z" transform="translate(-121.058 -60.944)" fill="#ffeae3"/>
    <rect id="Rectángulo_68" data-name="Rectángulo 68" width="8.947" height="37.851" transform="translate(112.362 155.072)" fill="#ffeae3"/>
    <path id="Trazado_147" data-name="Trazado 147" d="M429.641,246.576c4.38,0,6.974-1.886,6.974-8.288h7.4l-.024,2.964c-.243,6.921-4.645,12.627-14.6,12.627-10.817,0-15.529-7.576-15.529-17.882v-2.184c0-10.375,4.712-17.883,15.529-17.883,9.955,0,14.6,5.871,14.6,13.174v2.309h-8.163c0-4.232-2.027-8.361-6.238-8.387-5.827-.036-7.671,4.508-7.671,10.788V236c0,6.211,2.052,10.58,7.725,10.58" transform="translate(-287.955 -60.944)" fill="#ffeae3"/>
    <path id="Trazado_148" data-name="Trazado 148" d="M585.707,248.828a14.668,14.668,0,0,1-11.631,5.051c-7.53,0-10.757-4.847-10.757-10.648v-.682c0-7.849,5.513-10.306,12.438-11.33l9.076-1.433v-.136c0-4.573-1.412-6.753-5.917-6.753-4.841,0-5.916,2.726-5.916,5.866h-8.337v-.614c0-6.075,3.093-12.218,14.455-12.218,11.094,0,14.456,5.256,14.456,13.72v13.1l.213,11.113h-7.462Zm-.874-6.006v-7.645l-7.463,1.229c-3.7.614-5.311,2.389-5.311,5.188v.545c0,2.253,1.479,4.437,5.042,4.437a9.371,9.371,0,0,0,7.732-3.754" transform="translate(-402.666 -60.944)" fill="#ffeae3"/>
    <path id="Trazado_149" data-name="Trazado 149" d="M358.74,143.527a7,7,0,1,1-7-7,7,7,0,0,1,7,7" transform="translate(-234.902 0)" fill="#ffa300"/>
    <path id="Trazado_150" data-name="Trazado 150" d="M306.018,424.353v-3.035h1.237V427.5l.076,1.427h-1.094l-.1-.628a1.621,1.621,0,0,1-1.446.752c-1.38,0-1.893-1.056-1.893-2.493v-.3c0-1.446.514-2.493,1.893-2.493a1.652,1.652,0,0,1,1.332.59m0,1.065a1.16,1.16,0,0,0-.99-.58c-.7,0-1,.533-1,1.418v.3c0,.885.3,1.408,1,1.408a1.154,1.154,0,0,0,.99-.571Z" transform="translate(-202.71 -218.582)" fill="#ffeae3"/>
    <path id="Trazado_151" data-name="Trazado 151" d="M328.92,436.422a2.089,2.089,0,0,1-1.646.7,1.384,1.384,0,0,1-1.522-1.484v-.1c0-1.094.78-1.437,1.76-1.579l1.284-.2v-.019c0-.637-.2-.951-.837-.951-.685,0-.837.39-.837.828h-1.18v-.086c0-.846.438-1.7,2.045-1.7,1.57,0,2.046.732,2.046,1.912v1.827L330.11,437h-1.094Zm-.123-.837v-1.065l-1.056.171c-.523.085-.751.333-.751.723v.076a.623.623,0,0,0,.713.618,1.332,1.332,0,0,0,1.094-.524" transform="translate(-220.331 -226.655)" fill="#ffeae3"/>
    <path id="Trazado_152" data-name="Trazado 152" d="M350.234,427.655v1.085h-1.4v2.179c0,.676.3.818.818.818a1.724,1.724,0,0,0,.485-.067V432.7a1.933,1.933,0,0,1-.78.124,1.563,1.563,0,0,1-1.76-1.77V428.74h-.77v-1.085h.77v-1.427h1.237v1.427Z" transform="translate(-236.507 -222.351)" fill="#ffeae3"/>
    <path id="Trazado_153" data-name="Trazado 153" d="M367.676,436.422a2.09,2.09,0,0,1-1.646.7,1.384,1.384,0,0,1-1.522-1.484v-.1c0-1.094.78-1.437,1.76-1.579l1.284-.2v-.019c0-.637-.2-.951-.838-.951-.685,0-.837.39-.837.828H364.7v-.086c0-.846.438-1.7,2.046-1.7,1.57,0,2.045.732,2.045,1.912v1.827l.076,1.427h-1.094Zm-.123-.837v-1.065l-1.056.171c-.523.085-.751.333-.751.723v.076a.624.624,0,0,0,.714.618,1.332,1.332,0,0,0,1.094-.524" transform="translate(-250.077 -226.655)" fill="#ffeae3"/>
    <path id="Trazado_154" data-name="Trazado 154" d="M398.264,424.353v-3.035H399.5V427.5l.076,1.427h-1.094l-.1-.628a1.62,1.62,0,0,1-1.446.752c-1.38,0-1.893-1.056-1.893-2.493v-.3c0-1.446.514-2.493,1.893-2.493a1.653,1.653,0,0,1,1.332.59m0,1.065a1.16,1.16,0,0,0-.989-.58c-.7,0-1,.533-1,1.418v.3c0,.885.295,1.408,1,1.408a1.154,1.154,0,0,0,.989-.571Z" transform="translate(-273.51 -218.582)" fill="#ffeae3"/>
    <path id="Trazado_155" data-name="Trazado 155" d="M421.313,431.846v1.2H421.1a1.336,1.336,0,0,0-1.171.533V437H418.7v-3.615l-.086-1.427h1.094l.1.609a1.608,1.608,0,0,1,1.361-.732c.057,0,.114.01.143.01" transform="translate(-291.602 -226.655)" fill="#ffeae3"/>
    <path id="Trazado_156" data-name="Trazado 156" d="M435.227,424.174h-1.351v-1.342h1.351Zm-1.294.875h1.237v5.042h-1.237Z" transform="translate(-303.318 -219.744)" fill="#ffeae3"/>
    <path id="Trazado_157" data-name="Trazado 157" d="M442.471,432.367h1.294l1.132,4.015,1.132-4.015h1.284l-1.56,5.042H444.04Z" transform="translate(-309.914 -227.063)" fill="#ffeae3"/>
    <path id="Trazado_158" data-name="Trazado 158" d="M466.135,434.938c.048.827.428,1.227,1.132,1.227.676,0,1.028-.4,1.028-.78h1.17v.038c0,.9-.761,1.7-2.207,1.7A2.239,2.239,0,0,1,464.9,434.6v-.247a2.236,2.236,0,0,1,2.312-2.521c1.551,0,2.255,1.084,2.255,2.521v.581Zm0-.913h2.084c-.038-.8-.362-1.227-1.037-1.227s-1,.428-1.047,1.227" transform="translate(-327.128 -226.655)" fill="#ffeae3"/>
    <path id="Trazado_159" data-name="Trazado 159" d="M491.229,437v-3.254a.741.741,0,0,0-.8-.837,1.187,1.187,0,0,0-1.046.58V437h-1.237v-3.615l-.086-1.427h1.094l.114.666a1.87,1.87,0,0,1,1.636-.79,1.512,1.512,0,0,1,1.551,1.713V437Z" transform="translate(-344.905 -226.655)" fill="#ffeae3"/>
    <path id="Trazado_160" data-name="Trazado 160" d="M521.01,436.041a.806.806,0,0,0,.895-.876h1.17v.2c0,.961-.666,1.76-2.093,1.76-1.551,0-2.226-1.056-2.226-2.493v-.3c0-1.446.675-2.493,2.226-2.493,1.427,0,2.093.818,2.093,1.836v.209h-1.17c0-.59-.286-.97-.895-.97-.723,0-1.018.542-1.018,1.418v.3c0,.866.3,1.408,1.018,1.408" transform="translate(-368.464 -226.655)" fill="#ffeae3"/>
    <path id="Trazado_161" data-name="Trazado 161" d="M543.475,431.846v1.2h-.209a1.336,1.336,0,0,0-1.171.533V437h-1.236v-3.615l-.086-1.427h1.094l.1.609a1.608,1.608,0,0,1,1.36-.732c.057,0,.114.01.143.01" transform="translate(-385.363 -226.655)" fill="#ffeae3"/>
    <path id="Trazado_162" data-name="Trazado 162" d="M555.557,434.938c.048.827.428,1.227,1.133,1.227.676,0,1.028-.4,1.028-.78h1.17v.038c0,.9-.761,1.7-2.207,1.7a2.239,2.239,0,0,1-2.359-2.522v-.247a2.236,2.236,0,0,1,2.312-2.521c1.551,0,2.255,1.084,2.255,2.521v.581Zm0-.913h2.084c-.038-.8-.362-1.227-1.037-1.227s-1,.428-1.047,1.227" transform="translate(-395.761 -226.655)" fill="#ffeae3"/>
    <path id="Trazado_163" data-name="Trazado 163" d="M580.038,436.422a2.09,2.09,0,0,1-1.646.7,1.384,1.384,0,0,1-1.523-1.484v-.1c0-1.094.78-1.437,1.76-1.579l1.284-.2v-.019c0-.637-.2-.951-.837-.951-.685,0-.837.39-.837.828h-1.18v-.086c0-.846.438-1.7,2.045-1.7,1.57,0,2.046.732,2.046,1.912v1.827l.076,1.427h-1.094Zm-.124-.837v-1.065l-1.056.171c-.523.085-.751.333-.751.723v.076a.624.624,0,0,0,.714.618,1.332,1.332,0,0,0,1.094-.524" transform="translate(-413.067 -226.655)" fill="#ffeae3"/>
    <path id="Trazado_164" data-name="Trazado 164" d="M601.354,427.655v1.085h-1.4v2.179c0,.676.3.818.818.818a1.717,1.717,0,0,0,.485-.067V432.7a1.93,1.93,0,0,1-.78.124,1.563,1.563,0,0,1-1.76-1.77V428.74h-.77v-1.085h.77v-1.427h1.237v1.427Z" transform="translate(-429.245 -222.351)" fill="#ffeae3"/>
    <path id="Trazado_165" data-name="Trazado 165" d="M617.8,424.174h-1.351v-1.342H617.8Zm-1.294.875h1.237v5.042H616.5Z" transform="translate(-443.442 -219.744)" fill="#ffeae3"/>
    <path id="Trazado_166" data-name="Trazado 166" d="M625.039,432.367h1.294l1.133,4.015,1.132-4.015h1.284l-1.561,5.042h-1.712Z" transform="translate(-450.038 -227.063)" fill="#ffeae3"/>
    <path id="Trazado_167" data-name="Trazado 167" d="M650.045,424.174h-1.351v-1.342h1.351Zm-1.294.875h1.237v5.042h-1.237Z" transform="translate(-468.193 -219.744)" fill="#ffeae3"/>
    <path id="Trazado_168" data-name="Trazado 168" d="M661.063,427.655v1.085h-1.4v2.179c0,.676.3.818.818.818a1.724,1.724,0,0,0,.485-.067V432.7a1.934,1.934,0,0,1-.78.124,1.563,1.563,0,0,1-1.76-1.77V428.74h-.77v-1.085h.77v-1.427h1.237v1.427Z" transform="translate(-475.073 -222.351)" fill="#ffeae3"/>
    <path id="Trazado_169" data-name="Trazado 169" d="M677.953,432.367h1.332l-1.779,4.8-.666,2.15h-1.465l.8-2.15-1.779-4.8h1.342l1.1,3.5Z" transform="translate(-487.919 -227.063)" fill="#ffeae3"/>
  </g>
</svg>
